<svg xmlns="http://www.w3.org/2000/svg" width="1200" height="800" viewBox="0 0 1200 800" role="img" aria-labelledby="title desc">
  <title id="title">為替予約の振当処理と独立処理の違い</title>
  <desc id="desc">振当処理は外貨建取引の円換算額を予約レートで確定させ以後動かさない方法であるのに対し、独立処理はヘッジ対象である外貨建金銭債権債務を決算時レートで換算し、ヘッジ手段である為替予約を時価評価するという2本立てで会計処理する方法であるという違いを対比する図解</desc>
  <defs>
    <linearGradient id="bg" x1="0" y1="0" x2="1" y2="1">
      <stop offset="0" stop-color="#eff6ff"/>
      <stop offset="0.5" stop-color="#fbfdf5"/>
      <stop offset="1" stop-color="#f0fdf4"/>
    </linearGradient>
    <filter id="softShadow" x="-20%" y="-20%" width="140%" height="140%">
      <feDropShadow dx="0" dy="8" stdDeviation="10" flood-color="#667085" flood-opacity="0.12"/>
    </filter>
    <style>
      .title{font-family:"Noto Sans JP", system-ui, sans-serif;font-size:26px;font-weight:800;fill:#1f2937}
      .sub{font-family:"Noto Sans JP", system-ui, sans-serif;font-size:14px;font-weight:600;fill:#64748b}
      .colhead{font-family:"Noto Sans JP", system-ui, sans-serif;font-size:16px;font-weight:800;fill:#ffffff}
      .ptnum{font-family:"Noto Sans JP", system-ui, sans-serif;font-size:13px;font-weight:800;fill:#ffffff}
      .ptname{font-family:"Noto Sans JP", system-ui, sans-serif;font-size:14.5px;font-weight:800;fill:#1f2937}
      .ptbody{font-family:"Noto Sans JP", system-ui, sans-serif;font-size:12.5px;font-weight:600;fill:#475569}
      .banner{font-family:"Noto Sans JP", system-ui, sans-serif;font-size:15px;font-weight:800;fill:#92400e}
      .bannersmall{font-family:"Noto Sans JP", system-ui, sans-serif;font-size:12.5px;font-weight:600;fill:#475569}
    </style>
  </defs>

  <rect width="1200" height="800" rx="40" fill="url(#bg)"/>
  <circle cx="100" cy="90" r="64" fill="#dbeafe" opacity="0.6"/>
  <circle cx="1100" cy="110" r="78" fill="#dcfce7" opacity="0.55"/>
  <circle cx="1090" cy="740" r="88" fill="#dcfce7" opacity="0.4"/>
  <circle cx="110" cy="730" r="70" fill="#dbeafe" opacity="0.45"/>

  <text x="600" y="50" text-anchor="middle" class="title">振当処理 vs 独立処理 為替予約の違い</text>
  <text x="600" y="76" text-anchor="middle" class="sub">レートで固定するか、2つを別々に動かし続けるか</text>

  <!-- Left column: 振当処理 -->
  <g filter="url(#softShadow)">
    <rect x="70" y="104" width="500" height="46" rx="16" fill="#1D4ED8"/>
    <text x="320" y="133" text-anchor="middle" class="colhead">振当処理（簿記2級までの前提）</text>
  </g>

  <g filter="url(#softShadow)">
    <rect x="70" y="166" width="500" height="500" rx="22" fill="#ffffff" stroke="#93c5fd" stroke-width="3"/>

    <circle cx="108" cy="206" r="17" fill="#1D4ED8"/>
    <text x="108" y="211" text-anchor="middle" class="ptnum">1</text>
    <text x="136" y="202" class="ptname">基本の発想</text>
    <text x="136" y="222" class="ptbody">予約レートで円換算額を確定させる</text>

    <line x1="96" y1="240" x2="546" y2="240" stroke="#dbeafe" stroke-width="2"/>

    <circle cx="108" cy="278" r="17" fill="#1D4ED8"/>
    <text x="108" y="283" text-anchor="middle" class="ptnum">2</text>
    <text x="136" y="274" class="ptname">決算時の処理</text>
    <text x="136" y="294" class="ptbody">予約レートで確定済みのため再換算は不要</text>

    <line x1="96" y1="312" x2="546" y2="312" stroke="#dbeafe" stroke-width="2"/>

    <circle cx="108" cy="350" r="17" fill="#1D4ED8"/>
    <text x="108" y="355" text-anchor="middle" class="ptnum">3</text>
    <text x="136" y="346" class="ptname">勘定科目</text>
    <text x="136" y="366" class="ptbody">買掛金・売掛金の帳簿価額を振り当てるだけ</text>

    <rect x="96" y="466" width="450" height="176" rx="14" fill="#eff6ff"/>
    <text x="120" y="496" class="ptname" fill="#1d4ed8">考え方</text>
    <text x="120" y="522" class="ptbody">外貨建取引の金額を予約レートで確定</text>
    <text x="120" y="554" class="ptname" fill="#1d4ed8">見分けるキーワード</text>
    <text x="120" y="580" class="ptbody">「振当処理」「予約レートで固定」</text>
    <text x="120" y="606" class="ptbody">出題範囲：簿記2級までの標準的な方法</text>
  </g>

  <!-- Right column: 独立処理 -->
  <g filter="url(#softShadow)">
    <rect x="630" y="104" width="500" height="46" rx="16" fill="#166534"/>
    <text x="880" y="133" text-anchor="middle" class="colhead">独立処理（簿記1級で追加・原則）</text>
  </g>

  <g filter="url(#softShadow)">
    <rect x="630" y="166" width="500" height="500" rx="22" fill="#ffffff" stroke="#86efac" stroke-width="3"/>

    <circle cx="668" cy="206" r="17" fill="#166534"/>
    <text x="668" y="211" text-anchor="middle" class="ptnum">1</text>
    <text x="696" y="202" class="ptname">基本の発想</text>
    <text x="696" y="222" class="ptbody">ヘッジ対象とヘッジ手段を別々に処理する</text>

    <line x1="656" y1="240" x2="1106" y2="240" stroke="#dcfce7" stroke-width="2"/>

    <circle cx="668" cy="278" r="17" fill="#166534"/>
    <text x="668" y="283" text-anchor="middle" class="ptnum">2</text>
    <text x="696" y="274" class="ptname">決算時の処理</text>
    <text x="696" y="294" class="ptbody">買掛金は決算時レートで再換算し続ける</text>

    <line x1="656" y1="312" x2="1106" y2="312" stroke="#dcfce7" stroke-width="2"/>

    <circle cx="668" cy="350" r="17" fill="#166534"/>
    <text x="668" y="355" text-anchor="middle" class="ptnum">3</text>
    <text x="696" y="346" class="ptname">勘定科目</text>
    <text x="696" y="366" class="ptbody">為替予約を「為替予約資産／負債」で時価評価</text>

    <rect x="656" y="466" width="450" height="176" rx="14" fill="#f0fdf4"/>
    <text x="680" y="496" class="ptname" fill="#166534">考え方</text>
    <text x="680" y="522" class="ptbody">ヘッジ対象＝決算時レートで換算・為替差損益</text>
    <text x="680" y="554" class="ptname" fill="#166534">見分けるキーワード</text>
    <text x="680" y="580" class="ptbody">「ヘッジ対象」「ヘッジ手段」「時価評価」</text>
    <text x="680" y="606" class="ptbody">出題範囲：簿記1級のみ</text>
  </g>

  <!-- Bottom takeaway banner -->
  <g filter="url(#softShadow)">
    <rect x="70" y="690" width="1060" height="92" rx="24" fill="#fffbeb" stroke="#fcd34d" stroke-width="3"/>
    <text x="600" y="724" text-anchor="middle" class="banner">振当処理は「レートで固定して終わり」、独立処理は「2つを別々に動かし続ける」</text>
    <text x="600" y="750" text-anchor="middle" class="bannersmall">振当処理は買掛金を予約レートで確定させ動かさないが、独立処理は買掛金と為替予約それぞれを決算のたびに評価し直す</text>
  </g>
</svg>
