<svg xmlns="http://www.w3.org/2000/svg" width="360" height="1480" viewBox="0 0 360 1480" role="img" aria-labelledby="title desc">
  <title id="title">総合償却と個別償却の違い（モバイル版）</title>
  <desc id="desc">個別償却は各固定資産を個別に減価償却する方法であるのに対し、総合償却は複数の固定資産を一つの償却単位としてまとめて平均耐用年数を算定し一括で減価償却費を計算する方法であり、端数処理の関係で個別償却の合計額とは一致しないという違いを対比する図解</desc>
  <defs>
    <linearGradient id="mbg" x1="0" y1="0" x2="0" y2="1">
      <stop offset="0" stop-color="#eff6ff"/>
      <stop offset="1" stop-color="#f0fdf4"/>
    </linearGradient>
    <style>
      .title{font-family:"Noto Sans JP", system-ui, sans-serif;font-size:14px;font-weight:800;fill:#1f2937}
      .sub{font-family:"Noto Sans JP", system-ui, sans-serif;font-size:9.5px;font-weight:600;fill:#64748b}
      .colhead{font-family:"Noto Sans JP", system-ui, sans-serif;font-size:12px;font-weight:800;fill:#ffffff}
      .ptnum{font-family:"Noto Sans JP", system-ui, sans-serif;font-size:11px;font-weight:800;fill:#ffffff}
      .ptname{font-family:"Noto Sans JP", system-ui, sans-serif;font-size:12.5px;font-weight:800;fill:#1f2937}
      .ptbody{font-family:"Noto Sans JP", system-ui, sans-serif;font-size:10.5px;font-weight:600;fill:#475569}
      .banner{font-family:"Noto Sans JP", system-ui, sans-serif;font-size:12px;font-weight:800;fill:#92400e}
      .bannersmall{font-family:"Noto Sans JP", system-ui, sans-serif;font-size:10px;font-weight:600;fill:#475569}
    </style>
  </defs>

  <rect width="360" height="1480" rx="20" fill="url(#mbg)"/>

  <text x="180" y="26" text-anchor="middle" class="title">個別償却 vs 総合償却</text>
  <text x="180" y="44" text-anchor="middle" class="sub">計算単位からわかる違い</text>

  <!-- 個別償却 -->
  <rect x="16" y="62" width="328" height="42" rx="12" fill="#1D4ED8"/>
  <text x="180" y="88" text-anchor="middle" class="colhead">個別償却（簿記2級までの前提）</text>

  <rect x="16" y="116" width="328" height="500" rx="16" fill="#ffffff" stroke="#93c5fd" stroke-width="2.5"/>

  <circle cx="44" cy="150" r="15" fill="#1D4ED8"/>
  <text x="44" y="155" text-anchor="middle" class="ptnum">1</text>
  <text x="66" y="146" class="ptname">計算単位</text>
  <text x="66" y="164" class="ptbody">資産1つ1つを個別に減価償却</text>

  <line x1="30" y1="180" x2="330" y2="180" stroke="#dbeafe" stroke-width="2"/>

  <circle cx="44" cy="212" r="15" fill="#1D4ED8"/>
  <text x="44" y="217" text-anchor="middle" class="ptnum">2</text>
  <text x="66" y="208" class="ptname">除却時の処理</text>
  <text x="66" y="226" class="ptbody">未償却残高がそのまま除却損に</text>

  <line x1="30" y1="242" x2="330" y2="242" stroke="#dbeafe" stroke-width="2"/>

  <circle cx="44" cy="274" r="15" fill="#1D4ED8"/>
  <text x="44" y="279" text-anchor="middle" class="ptnum">3</text>
  <text x="66" y="270" class="ptname">向いている場面</text>
  <text x="66" y="288" class="ptbody">資産の入れ替えが少ない場合</text>

  <rect x="30" y="374" width="300" height="226" rx="12" fill="#eff6ff"/>
  <text x="46" y="400" class="ptname" fill="#1d4ed8">計算式</text>
  <text x="46" y="424" class="ptbody">各資産の年間償却費＝</text>
  <text x="46" y="442" class="ptbody">要償却額÷耐用年数</text>
  <text x="46" y="470" class="ptname" fill="#1d4ed8">見分けるキーワード</text>
  <text x="46" y="494" class="ptbody">「各資産ごとに」「1台ずつ」</text>
  <text x="46" y="512" class="ptbody">出題範囲：簿記2級まで</text>

  <!-- 総合償却 -->
  <rect x="16" y="646" width="328" height="42" rx="12" fill="#166534"/>
  <text x="180" y="672" text-anchor="middle" class="colhead">総合償却（簿記1級で追加）</text>

  <rect x="16" y="700" width="328" height="500" rx="16" fill="#ffffff" stroke="#86efac" stroke-width="2.5"/>

  <circle cx="44" cy="734" r="15" fill="#166534"/>
  <text x="44" y="739" text-anchor="middle" class="ptnum">1</text>
  <text x="66" y="730" class="ptname">計算単位</text>
  <text x="66" y="748" class="ptbody">複数の資産を1つの単位でまとめる</text>

  <line x1="30" y1="764" x2="330" y2="764" stroke="#dcfce7" stroke-width="2"/>

  <circle cx="44" cy="796" r="15" fill="#166534"/>
  <text x="44" y="801" text-anchor="middle" class="ptnum">2</text>
  <text x="66" y="792" class="ptname">除却時の処理</text>
  <text x="66" y="810" class="ptbody">未償却残高は不明（貯蔵品で処理）</text>

  <line x1="30" y1="826" x2="330" y2="826" stroke="#dcfce7" stroke-width="2"/>

  <circle cx="44" cy="858" r="15" fill="#166534"/>
  <text x="44" y="863" text-anchor="middle" class="ptnum">3</text>
  <text x="66" y="854" class="ptname">向いている場面</text>
  <text x="66" y="872" class="ptbody">似た資産が多く入れ替えが多い場合</text>

  <rect x="30" y="956" width="300" height="226" rx="12" fill="#f0fdf4"/>
  <text x="46" y="982" class="ptname" fill="#166534">計算式</text>
  <text x="46" y="1006" class="ptbody">平均耐用年数＝</text>
  <text x="46" y="1024" class="ptbody">要償却額合計÷年間償却額合計</text>
  <text x="46" y="1052" class="ptname" fill="#166534">見分けるキーワード</text>
  <text x="46" y="1076" class="ptbody">「償却単位」「平均耐用年数」</text>
  <text x="46" y="1094" class="ptbody">出題範囲：簿記1級のみ</text>

  <!-- Bottom banner -->
  <rect x="16" y="1250" width="328" height="200" rx="16" fill="#fffbeb" stroke="#fcd34d" stroke-width="2.5"/>
  <text x="180" y="1280" text-anchor="middle" class="banner">端数処理のせいで</text>
  <text x="180" y="1298" text-anchor="middle" class="banner">金額が一致しないことがある</text>
  <text x="180" y="1326" text-anchor="middle" class="bannersmall">平均耐用年数を計算する過程で</text>
  <text x="180" y="1344" text-anchor="middle" class="bannersmall">端数を切り捨てるため、個別の</text>
  <text x="180" y="1362" text-anchor="middle" class="bannersmall">合計とズレることがある</text>
</svg>
