<svg xmlns="http://www.w3.org/2000/svg" viewBox="0 0 360 1400" width="360" height="1400" role="img" aria-labelledby="t d">
  <title id="t">連結会計——連結財務諸表の作成手順と主要修正（モバイル版）</title>
  <desc id="d">親会社と子会社の単純合算から、投資と資本の相殺消去・内部取引の消去・債権債務の相殺消去という3つの連結修正仕訳を経て連結財務諸表が完成するまでの流れを縦に並べた図解</desc>
  <defs><style>text{font-family:'Noto Sans JP','Hiragino Sans',sans-serif;}</style></defs>
  <rect width="360" height="1400" rx="16" fill="#F8FAFC"/>
  <text x="180" y="36" text-anchor="middle" font-size="19" font-weight="700" fill="#1E293B">連結会計</text>
  <text x="180" y="58" text-anchor="middle" font-size="13" fill="#64748B">連結財務諸表の作成手順と主要修正</text>

  <rect x="16" y="76" width="328" height="110" rx="10" fill="#EFF6FF" stroke="#93C5FD" stroke-width="2"/>
  <text x="180" y="108" text-anchor="middle" font-size="15" font-weight="700" fill="#1E40AF">親会社</text>
  <text x="180" y="134" text-anchor="middle" font-size="13" fill="#374151">支配力を持つ会社。</text>
  <text x="180" y="154" text-anchor="middle" font-size="13" fill="#374151">子会社株式を50%超保有</text>

  <text x="180" y="216" text-anchor="middle" font-size="16" fill="#94A3B8">＋</text>

  <rect x="16" y="228" width="328" height="110" rx="10" fill="#F0FDF4" stroke="#86EFAC" stroke-width="2"/>
  <text x="180" y="260" text-anchor="middle" font-size="15" font-weight="700" fill="#166534">子会社</text>
  <text x="180" y="286" text-anchor="middle" font-size="13" fill="#374151">親会社に支配される会社。</text>
  <text x="180" y="306" text-anchor="middle" font-size="13" fill="#374151">実質的な支配で判定</text>

  <text x="180" y="368" text-anchor="middle" font-size="13" fill="#7C3AED">↓ 単純合算（財務諸表を足し合わせる）</text>

  <rect x="50" y="380" width="260" height="46" rx="8" fill="#EDE9FE" stroke="#C4B5FD" stroke-width="1.5"/>
  <text x="180" y="409" text-anchor="middle" font-size="14" font-weight="700" fill="#5B21B6">単純合算財務諸表</text>

  <text x="180" y="464" text-anchor="middle" font-size="13" fill="#EF4444">↓ 連結修正仕訳（3つ）</text>

  <rect x="16" y="478" width="328" height="222" rx="10" fill="#FEF2F2" stroke="#FCA5A5" stroke-width="2"/>
  <text x="32" y="512" font-size="15" font-weight="700" fill="#DC2626">① 投資と資本の相殺消去</text>
  <text x="32" y="542" font-size="13.5" fill="#374151">親の「子会社株式」と子の「純資産」</text>
  <text x="32" y="564" font-size="13.5" fill="#374151">を相殺</text>
  <text x="32" y="594" font-size="14" font-weight="700" fill="#DC2626">資本金等 ×× ／ 子会社株式 ××</text>
  <text x="32" y="622" font-size="12.5" fill="#374151">差額がのれん（正）または</text>
  <text x="32" y="640" font-size="12.5" fill="#374151">のれん受入益（負）</text>
  <text x="32" y="666" font-size="12.5" fill="#64748B">のれんは20年以内で償却</text>

  <rect x="16" y="726" width="328" height="222" rx="10" fill="#FFF7ED" stroke="#FDB97D" stroke-width="2"/>
  <text x="32" y="760" font-size="15" font-weight="700" fill="#C2410C">② 内部取引・内部利益消去</text>
  <text x="32" y="790" font-size="13.5" fill="#374151">親子間の売買取引を消去</text>
  <text x="32" y="820" font-size="14" font-weight="700" fill="#C2410C">売上高 ×× ／ 売上原価 ××</text>
  <text x="32" y="848" font-size="12.5" fill="#374151">期末棚卸資産に未実現利益が</text>
  <text x="32" y="866" font-size="12.5" fill="#374151">残る場合</text>
  <text x="32" y="892" font-size="12.5" fill="#64748B">売上原価／棚卸資産（未実現利益消去）</text>

  <rect x="16" y="974" width="328" height="222" rx="10" fill="#EFF6FF" stroke="#93C5FD" stroke-width="2"/>
  <text x="32" y="1008" font-size="15" font-weight="700" fill="#1E40AF">③ 債権・債務の相殺消去</text>
  <text x="32" y="1038" font-size="13.5" fill="#374151">親の「売掛金」と子の「買掛金」</text>
  <text x="32" y="1060" font-size="13.5" fill="#374151">を相殺</text>
  <text x="32" y="1090" font-size="14" font-weight="700" fill="#1D4ED8">買掛金 ×× ／ 売掛金 ××</text>
  <text x="32" y="1118" font-size="12.5" fill="#374151">受取手形・支払手形・貸付金・</text>
  <text x="32" y="1136" font-size="12.5" fill="#374151">借入金も同様</text>
  <text x="32" y="1162" font-size="12.5" fill="#64748B">貸倒引当金も修正が必要</text>

  <text x="180" y="1234" text-anchor="middle" font-size="18" fill="#22C55E">↓</text>

  <rect x="24" y="1248" width="312" height="60" rx="10" fill="#DCFCE7" stroke="#86EFAC" stroke-width="2"/>
  <text x="180" y="1284" text-anchor="middle" font-size="15" font-weight="700" fill="#166534">連結財務諸表（グループ全体）完成</text>

  <rect x="16" y="1332" width="328" height="60" rx="10" fill="#F1F5F9"/>
  <text x="180" y="1360" text-anchor="middle" font-size="13.5" font-weight="700" fill="#475569">連結会計の核心は「グループ内の取引を</text>
  <text x="180" y="1380" text-anchor="middle" font-size="13.5" font-weight="700" fill="#475569">なかったことにする」作業</text>
</svg>
