<svg xmlns="http://www.w3.org/2000/svg" width="1200" height="800" viewBox="0 0 1200 800" role="img" aria-labelledby="title desc">
  <title id="title">社債の償却原価法、定額法と利息法の違い</title>
  <desc id="desc">定額法は金利調整差額を発行期間で均等に配分する簿記2級の簡便法であるのに対し、利息法は帳簿価額に実効利子率を掛けて社債利息を算定する簿記1級の原則法であり、償却額が年々増加していくという違いを対比する図解</desc>
  <defs>
    <linearGradient id="bg" x1="0" y1="0" x2="1" y2="1">
      <stop offset="0" stop-color="#f0fdf4"/>
      <stop offset="0.5" stop-color="#fbfdf5"/>
      <stop offset="1" stop-color="#fffbeb"/>
    </linearGradient>
    <filter id="softShadow" x="-20%" y="-20%" width="140%" height="140%">
      <feDropShadow dx="0" dy="8" stdDeviation="10" flood-color="#667085" flood-opacity="0.12"/>
    </filter>
    <style>
      .title{font-family:"Noto Sans JP", system-ui, sans-serif;font-size:26px;font-weight:800;fill:#1f2937}
      .sub{font-family:"Noto Sans JP", system-ui, sans-serif;font-size:14px;font-weight:600;fill:#64748b}
      .colhead{font-family:"Noto Sans JP", system-ui, sans-serif;font-size:16px;font-weight:800;fill:#ffffff}
      .ptnum{font-family:"Noto Sans JP", system-ui, sans-serif;font-size:13px;font-weight:800;fill:#ffffff}
      .ptname{font-family:"Noto Sans JP", system-ui, sans-serif;font-size:14.5px;font-weight:800;fill:#1f2937}
      .ptbody{font-family:"Noto Sans JP", system-ui, sans-serif;font-size:12.5px;font-weight:600;fill:#475569}
      .banner{font-family:"Noto Sans JP", system-ui, sans-serif;font-size:15.5px;font-weight:800;fill:#92400e}
      .bannersmall{font-family:"Noto Sans JP", system-ui, sans-serif;font-size:12.5px;font-weight:600;fill:#475569}
    </style>
  </defs>

  <rect width="1200" height="800" rx="40" fill="url(#bg)"/>
  <circle cx="100" cy="90" r="64" fill="#dcfce7" opacity="0.6"/>
  <circle cx="1100" cy="110" r="78" fill="#fef3c7" opacity="0.55"/>
  <circle cx="1090" cy="740" r="88" fill="#fef3c7" opacity="0.4"/>
  <circle cx="110" cy="730" r="70" fill="#dcfce7" opacity="0.45"/>

  <text x="600" y="50" text-anchor="middle" class="title">社債の償却原価法 定額法 vs 利息法</text>
  <text x="600" y="76" text-anchor="middle" class="sub">「毎年同じ額」を配分するか、「帳簿価額に対して一定率」で配分するか</text>

  <!-- Left column: 定額法 -->
  <g filter="url(#softShadow)">
    <rect x="70" y="104" width="500" height="46" rx="16" fill="#166534"/>
    <text x="320" y="133" text-anchor="middle" class="colhead">定額法（簿記2級・簡便法）</text>
  </g>

  <g filter="url(#softShadow)">
    <rect x="70" y="166" width="500" height="500" rx="22" fill="#ffffff" stroke="#86efac" stroke-width="3"/>

    <circle cx="108" cy="206" r="17" fill="#166534"/>
    <text x="108" y="211" text-anchor="middle" class="ptnum">1</text>
    <text x="136" y="202" class="ptname">配分の方法</text>
    <text x="136" y="222" class="ptbody">金利調整差額を発行期間で均等に配分する</text>

    <line x1="96" y1="240" x2="546" y2="240" stroke="#dcfce7" stroke-width="2"/>

    <circle cx="108" cy="278" r="17" fill="#166534"/>
    <text x="108" y="283" text-anchor="middle" class="ptnum">2</text>
    <text x="136" y="274" class="ptname">毎期の償却額</text>
    <text x="136" y="294" class="ptbody">毎年まったく同じ金額（計算がシンプル）</text>

    <line x1="96" y1="312" x2="546" y2="312" stroke="#dcfce7" stroke-width="2"/>

    <circle cx="108" cy="350" r="17" fill="#166534"/>
    <text x="108" y="355" text-anchor="middle" class="ptnum">3</text>
    <text x="136" y="346" class="ptname">位置づけ</text>
    <text x="136" y="366" class="ptbody">継続適用を条件に認められる簡便法</text>

    <rect x="96" y="466" width="450" height="176" rx="14" fill="#f0fdf4"/>
    <text x="120" y="496" class="ptname" fill="#166534">計算式</text>
    <text x="120" y="522" class="ptbody">毎期の償却額＝金利調整差額÷発行期間</text>
    <text x="120" y="554" class="ptname" fill="#166534">見分けるキーワード</text>
    <text x="120" y="580" class="ptbody">「定額法」「毎期均等額」</text>
    <text x="120" y="606" class="ptbody">問題文の指示なし＝2級では定額法が前提</text>
  </g>

  <!-- Right column: 利息法 -->
  <g filter="url(#softShadow)">
    <rect x="630" y="104" width="500" height="46" rx="16" fill="#B45309"/>
    <text x="880" y="133" text-anchor="middle" class="colhead">利息法（簿記1級・原則法）</text>
  </g>

  <g filter="url(#softShadow)">
    <rect x="630" y="166" width="500" height="500" rx="22" fill="#ffffff" stroke="#FCD9A0" stroke-width="3"/>

    <circle cx="668" cy="206" r="17" fill="#B45309"/>
    <text x="668" y="211" text-anchor="middle" class="ptnum">1</text>
    <text x="696" y="202" class="ptname">配分の方法</text>
    <text x="696" y="222" class="ptbody">帳簿価額に実効利子率を掛けて社債利息を算定</text>

    <line x1="656" y1="240" x2="1106" y2="240" stroke="#FEF3C7" stroke-width="2"/>

    <circle cx="668" cy="278" r="17" fill="#B45309"/>
    <text x="668" y="283" text-anchor="middle" class="ptnum">2</text>
    <text x="696" y="274" class="ptname">毎期の償却額</text>
    <text x="696" y="294" class="ptbody">帳簿価額が増えるにつれ、年々少しずつ増加する</text>

    <line x1="656" y1="312" x2="1106" y2="312" stroke="#FEF3C7" stroke-width="2"/>

    <circle cx="668" cy="350" r="17" fill="#B45309"/>
    <text x="668" y="355" text-anchor="middle" class="ptnum">3</text>
    <text x="696" y="346" class="ptname">位置づけ</text>
    <text x="696" y="366" class="ptbody">会計理論上、本来あるべき原則的な方法</text>

    <rect x="656" y="466" width="450" height="176" rx="14" fill="#FFFBEB"/>
    <text x="680" y="496" class="ptname" fill="#92400E">計算式</text>
    <text x="680" y="522" class="ptbody">社債利息＝期首帳簿価額×実効利子率</text>
    <text x="680" y="554" class="ptname" fill="#92400E">見分けるキーワード</text>
    <text x="680" y="580" class="ptbody">「利息法」「実効利子率」</text>
    <text x="680" y="606" class="ptbody">問題文に実効利子率の指示があれば利息法</text>
  </g>

  <!-- Bottom takeaway banner -->
  <g filter="url(#softShadow)">
    <rect x="70" y="690" width="1060" height="92" rx="24" fill="#fffbeb" stroke="#fcd34d" stroke-width="3"/>
    <text x="600" y="724" text-anchor="middle" class="banner">2級では定額法だけでOK、1級で「実は利息法が原則だった」と知る</text>
    <text x="600" y="750" text-anchor="middle" class="bannersmall">定額法は計算が簡単な代わりに理論的には近似値。利息法は複雑な代わりに実態を正確に反映する——1級はこの「なぜ2つあるか」まで問われる</text>
  </g>
</svg>
