<svg xmlns="http://www.w3.org/2000/svg" width="1200" height="800" viewBox="0 0 1200 800" role="img" aria-labelledby="title desc">
  <title id="title">のれんと負ののれんの違い</title>
  <desc id="desc">合併対価が受け入れた純資産額を上回る場合はのれんとして資産計上し、逆に受け入れた純資産額が合併対価を上回る場合は負ののれん発生益として収益にすぐ計上するという、正反対の処理を対比する図解</desc>
  <defs>
    <linearGradient id="bg" x1="0" y1="0" x2="1" y2="1">
      <stop offset="0" stop-color="#eff6ff"/>
      <stop offset="0.5" stop-color="#fbfdf5"/>
      <stop offset="1" stop-color="#f0fdf4"/>
    </linearGradient>
    <filter id="softShadow" x="-20%" y="-20%" width="140%" height="140%">
      <feDropShadow dx="0" dy="8" stdDeviation="10" flood-color="#667085" flood-opacity="0.12"/>
    </filter>
    <style>
      .title{font-family:"Noto Sans JP", system-ui, sans-serif;font-size:27px;font-weight:800;fill:#1f2937}
      .sub{font-family:"Noto Sans JP", system-ui, sans-serif;font-size:14px;font-weight:600;fill:#64748b}
      .colhead{font-family:"Noto Sans JP", system-ui, sans-serif;font-size:16.5px;font-weight:800;fill:#ffffff}
      .ptnum{font-family:"Noto Sans JP", system-ui, sans-serif;font-size:13px;font-weight:800;fill:#ffffff}
      .ptname{font-family:"Noto Sans JP", system-ui, sans-serif;font-size:14.5px;font-weight:800;fill:#1f2937}
      .ptbody{font-family:"Noto Sans JP", system-ui, sans-serif;font-size:12.5px;font-weight:600;fill:#475569}
      .banner{font-family:"Noto Sans JP", system-ui, sans-serif;font-size:16px;font-weight:800;fill:#92400e}
      .bannersmall{font-family:"Noto Sans JP", system-ui, sans-serif;font-size:12.5px;font-weight:600;fill:#475569}
    </style>
  </defs>

  <rect width="1200" height="800" rx="40" fill="url(#bg)"/>
  <circle cx="100" cy="90" r="64" fill="#dbeafe" opacity="0.6"/>
  <circle cx="1100" cy="110" r="78" fill="#dcfce7" opacity="0.55"/>
  <circle cx="1090" cy="740" r="88" fill="#dcfce7" opacity="0.4"/>
  <circle cx="110" cy="730" r="70" fill="#dbeafe" opacity="0.45"/>

  <text x="600" y="50" text-anchor="middle" class="title">のれん vs 負ののれん 対価と純資産の大小関係</text>
  <text x="600" y="76" text-anchor="middle" class="sub">高く買ったら資産、安く買えたらすぐ収益——正反対の処理</text>

  <!-- Left column: のれん -->
  <g filter="url(#softShadow)">
    <rect x="70" y="104" width="500" height="46" rx="16" fill="#1D4ED8"/>
    <text x="320" y="133" text-anchor="middle" class="colhead">のれん（対価 ＞ 受入純資産額）</text>
  </g>

  <g filter="url(#softShadow)">
    <rect x="70" y="166" width="500" height="500" rx="22" fill="#ffffff" stroke="#93c5fd" stroke-width="3"/>

    <circle cx="108" cy="206" r="17" fill="#1D4ED8"/>
    <text x="108" y="211" text-anchor="middle" class="ptnum">1</text>
    <text x="136" y="202" class="ptname">発生条件</text>
    <text x="136" y="222" class="ptbody">合併対価が受け入れた純資産額より大きい</text>

    <line x1="96" y1="240" x2="546" y2="240" stroke="#dbeafe" stroke-width="2"/>

    <circle cx="108" cy="278" r="17" fill="#1D4ED8"/>
    <text x="108" y="283" text-anchor="middle" class="ptnum">2</text>
    <text x="136" y="274" class="ptname">勘定科目の分類</text>
    <text x="136" y="294" class="ptbody">資産（貸借対照表に計上、その後償却する）</text>

    <line x1="96" y1="312" x2="546" y2="312" stroke="#dbeafe" stroke-width="2"/>

    <circle cx="108" cy="350" r="17" fill="#1D4ED8"/>
    <text x="108" y="355" text-anchor="middle" class="ptnum">3</text>
    <text x="136" y="346" class="ptname">直感的なイメージ</text>
    <text x="136" y="366" class="ptbody">ブランド力や信用にプレミアムを払った</text>

    <rect x="96" y="466" width="450" height="176" rx="14" fill="#eff6ff"/>
    <text x="120" y="496" class="ptname" fill="#1d4ed8">仕訳の型</text>
    <text x="120" y="522" class="ptbody">（借）諸資産・のれん ／（貸）諸負債・対価</text>
    <text x="120" y="554" class="ptname" fill="#1d4ed8">見分けるキーワード</text>
    <text x="120" y="580" class="ptbody">「割高で買った」「プレミアムを払った」</text>
    <text x="120" y="606" class="ptbody">→ 対価の方が大きい</text>
  </g>

  <!-- Right column: 負ののれん -->
  <g filter="url(#softShadow)">
    <rect x="630" y="104" width="500" height="46" rx="16" fill="#166534"/>
    <text x="880" y="133" text-anchor="middle" class="colhead">負ののれん（受入純資産額 ＞ 対価）</text>
  </g>

  <g filter="url(#softShadow)">
    <rect x="630" y="166" width="500" height="500" rx="22" fill="#ffffff" stroke="#86efac" stroke-width="3"/>

    <circle cx="668" cy="206" r="17" fill="#166534"/>
    <text x="668" y="211" text-anchor="middle" class="ptnum">1</text>
    <text x="696" y="202" class="ptname">発生条件</text>
    <text x="696" y="222" class="ptbody">受け入れた純資産額が合併対価より大きい</text>

    <line x1="656" y1="240" x2="1106" y2="240" stroke="#dcfce7" stroke-width="2"/>

    <circle cx="668" cy="278" r="17" fill="#166534"/>
    <text x="668" y="283" text-anchor="middle" class="ptnum">2</text>
    <text x="696" y="274" class="ptname">勘定科目の分類</text>
    <text x="696" y="294" class="ptbody">収益（負ののれん発生益として即座に計上）</text>

    <line x1="656" y1="312" x2="1106" y2="312" stroke="#dcfce7" stroke-width="2"/>

    <circle cx="668" cy="350" r="17" fill="#166534"/>
    <text x="668" y="355" text-anchor="middle" class="ptnum">3</text>
    <text x="696" y="346" class="ptname">直感的なイメージ</text>
    <text x="696" y="366" class="ptbody">割安で買えて得をした分</text>

    <rect x="656" y="466" width="450" height="176" rx="14" fill="#f0fdf4"/>
    <text x="680" y="496" class="ptname" fill="#166534">仕訳の型</text>
    <text x="680" y="522" class="ptbody">（借）諸資産・対価 ／（貸）諸負債・発生益</text>
    <text x="680" y="554" class="ptname" fill="#166534">見分けるキーワード</text>
    <text x="680" y="580" class="ptbody">「割安で買収できた」「お買い得だった」</text>
    <text x="680" y="606" class="ptbody">→ 受入純資産額の方が大きい</text>
  </g>

  <!-- Bottom takeaway banner -->
  <g filter="url(#softShadow)">
    <rect x="70" y="690" width="1060" height="92" rx="24" fill="#fffbeb" stroke="#fcd34d" stroke-width="3"/>
    <text x="600" y="724" text-anchor="middle" class="banner">負ののれんは「負債」ではなく「収益」——支払義務ではないから</text>
    <text x="600" y="750" text-anchor="middle" class="bannersmall">名前に「負」がつくため負債と誤解しやすいが、返す義務のあるお金ではなく「得をした分」なので、その場で収益として計上する</text>
  </g>
</svg>
