<svg xmlns="http://www.w3.org/2000/svg" width="360" height="1480" viewBox="0 0 360 1480" role="img" aria-labelledby="title desc">
  <title id="title">退職給付会計の簡便法と原則法の違い（モバイル版）</title>
  <desc id="desc">簡便法は期末の退職給付債務から年金資産を引いた期末要支給額のみで退職給付引当金を計算する方法であるのに対し、原則法は勤務費用・利息費用・期待運用収益を毎期積み上げて退職給付費用を計算する方法であるという違いを対比する図解</desc>
  <defs>
    <linearGradient id="mbg" x1="0" y1="0" x2="0" y2="1">
      <stop offset="0" stop-color="#eff6ff"/>
      <stop offset="1" stop-color="#f0fdf4"/>
    </linearGradient>
    <style>
      .title{font-family:"Noto Sans JP", system-ui, sans-serif;font-size:14px;font-weight:800;fill:#1f2937}
      .sub{font-family:"Noto Sans JP", system-ui, sans-serif;font-size:9.5px;font-weight:600;fill:#64748b}
      .colhead{font-family:"Noto Sans JP", system-ui, sans-serif;font-size:12px;font-weight:800;fill:#ffffff}
      .ptnum{font-family:"Noto Sans JP", system-ui, sans-serif;font-size:11px;font-weight:800;fill:#ffffff}
      .ptname{font-family:"Noto Sans JP", system-ui, sans-serif;font-size:12.5px;font-weight:800;fill:#1f2937}
      .ptbody{font-family:"Noto Sans JP", system-ui, sans-serif;font-size:10.5px;font-weight:600;fill:#475569}
      .banner{font-family:"Noto Sans JP", system-ui, sans-serif;font-size:12px;font-weight:800;fill:#92400e}
      .bannersmall{font-family:"Noto Sans JP", system-ui, sans-serif;font-size:10px;font-weight:600;fill:#475569}
    </style>
  </defs>

  <rect width="360" height="1480" rx="20" fill="url(#mbg)"/>

  <text x="180" y="26" text-anchor="middle" class="title">簡便法 vs 原則法</text>
  <text x="180" y="44" text-anchor="middle" class="sub">退職給付会計、計算発想の違い</text>

  <!-- 簡便法 -->
  <rect x="16" y="62" width="328" height="42" rx="12" fill="#1D4ED8"/>
  <text x="180" y="88" text-anchor="middle" class="colhead">簡便法（簿記2級までの前提）</text>

  <rect x="16" y="116" width="328" height="500" rx="16" fill="#ffffff" stroke="#93c5fd" stroke-width="2.5"/>

  <circle cx="44" cy="150" r="15" fill="#1D4ED8"/>
  <text x="44" y="155" text-anchor="middle" class="ptnum">1</text>
  <text x="66" y="146" class="ptname">計算方法</text>
  <text x="66" y="164" class="ptbody">期末要支給額から年金資産を引くだけ</text>

  <line x1="30" y1="180" x2="330" y2="180" stroke="#dbeafe" stroke-width="2"/>

  <circle cx="44" cy="212" r="15" fill="#1D4ED8"/>
  <text x="44" y="217" text-anchor="middle" class="ptnum">2</text>
  <text x="66" y="208" class="ptname">費用の内訳</text>
  <text x="66" y="226" class="ptbody">変動額をそのまま費用にする</text>

  <line x1="30" y1="242" x2="330" y2="242" stroke="#dbeafe" stroke-width="2"/>

  <circle cx="44" cy="274" r="15" fill="#1D4ED8"/>
  <text x="44" y="279" text-anchor="middle" class="ptnum">3</text>
  <text x="66" y="270" class="ptname">向いている場面</text>
  <text x="66" y="288" class="ptbody">制度がシンプルな中小企業など</text>

  <rect x="30" y="374" width="300" height="226" rx="12" fill="#eff6ff"/>
  <text x="46" y="400" class="ptname" fill="#1d4ed8">計算式</text>
  <text x="46" y="424" class="ptbody">退職給付引当金＝</text>
  <text x="46" y="442" class="ptbody">期末要支給額－年金資産</text>
  <text x="46" y="470" class="ptname" fill="#1d4ed8">見分けるキーワード</text>
  <text x="46" y="494" class="ptbody">「期末要支給額」「中小企業」</text>
  <text x="46" y="512" class="ptbody">出題範囲：簿記2級まで</text>

  <!-- 原則法 -->
  <rect x="16" y="646" width="328" height="42" rx="12" fill="#166534"/>
  <text x="180" y="672" text-anchor="middle" class="colhead">原則法（簿記1級で追加）</text>

  <rect x="16" y="700" width="328" height="500" rx="16" fill="#ffffff" stroke="#86efac" stroke-width="2.5"/>

  <circle cx="44" cy="734" r="15" fill="#166534"/>
  <text x="44" y="739" text-anchor="middle" class="ptnum">1</text>
  <text x="66" y="730" class="ptname">計算方法</text>
  <text x="66" y="748" class="ptbody">3要素を毎期積み上げて計算</text>

  <line x1="30" y1="764" x2="330" y2="764" stroke="#dcfce7" stroke-width="2"/>

  <circle cx="44" cy="796" r="15" fill="#166534"/>
  <text x="44" y="801" text-anchor="middle" class="ptnum">2</text>
  <text x="66" y="792" class="ptname">費用の内訳</text>
  <text x="66" y="810" class="ptbody">3つの要素に分けて動きを追う</text>

  <line x1="30" y1="826" x2="330" y2="826" stroke="#dcfce7" stroke-width="2"/>

  <circle cx="44" cy="858" r="15" fill="#166534"/>
  <text x="44" y="863" text-anchor="middle" class="ptnum">3</text>
  <text x="66" y="854" class="ptname">向いている場面</text>
  <text x="66" y="872" class="ptbody">詳細な開示が必要な大企業など</text>

  <rect x="30" y="956" width="300" height="226" rx="12" fill="#f0fdf4"/>
  <text x="46" y="982" class="ptname" fill="#166534">計算式</text>
  <text x="46" y="1006" class="ptbody">退職給付費用＝勤務費用＋</text>
  <text x="46" y="1024" class="ptbody">利息費用－期待運用収益</text>
  <text x="46" y="1052" class="ptname" fill="#166534">見分けるキーワード</text>
  <text x="46" y="1076" class="ptbody">「勤務費用」「利息費用」</text>
  <text x="46" y="1094" class="ptbody">出題範囲：簿記1級のみ</text>

  <!-- Bottom banner -->
  <rect x="16" y="1250" width="328" height="200" rx="16" fill="#fffbeb" stroke="#fcd34d" stroke-width="2.5"/>
  <text x="180" y="1280" text-anchor="middle" class="banner">簡便法は帳尻合わせ、</text>
  <text x="180" y="1298" text-anchor="middle" class="banner">原則法は動きの積み上げ</text>
  <text x="180" y="1326" text-anchor="middle" class="bannersmall">簡便法は期末残高の差額だけ</text>
  <text x="180" y="1344" text-anchor="middle" class="bannersmall">を見るが、原則法は3つの動き</text>
  <text x="180" y="1362" text-anchor="middle" class="bannersmall">を毎期計算して積み上げる</text>
</svg>
