<svg xmlns="http://www.w3.org/2000/svg" viewBox="0 0 760 400" width="760" height="400">
  <defs>
    <style>text { font-family: 'Noto Sans JP','Hiragino Sans',sans-serif; }</style>
  </defs>
  <rect width="760" height="400" rx="12" fill="#F8FAFC"/>
  <text x="380" y="34" text-anchor="middle" font-size="15" font-weight="700" fill="#1E293B">MOS（Microsoft Office Specialist）試験マップ</text>
  <!-- Header -->
  <rect x="20" y="52" width="720" height="28" rx="6" fill="#0078D4"/>
  <text x="380" y="71" text-anchor="middle" font-size="12" font-weight="700" fill="#fff">随時CBT受験・合格率70〜80%（一般）/ 40〜60%（エキスパート）・就活で最もコスパが高いPC資格</text>
  <!-- Column headers -->
  <rect x="20" y="88" width="120" height="28" rx="4" fill="#1E293B"/>
  <text x="80" y="107" text-anchor="middle" font-size="11" font-weight="700" fill="#fff">科目</text>
  <rect x="148" y="88" width="180" height="28" rx="4" fill="#0078D4"/>
  <text x="238" y="107" text-anchor="middle" font-size="11" font-weight="700" fill="#fff">一般（Associate）</text>
  <rect x="336" y="88" width="200" height="28" rx="4" fill="#005A9E"/>
  <text x="436" y="107" text-anchor="middle" font-size="11" font-weight="700" fill="#fff">エキスパート（Expert）</text>
  <rect x="544" y="88" width="216" height="28" rx="4" fill="#334155"/>
  <text x="652" y="107" text-anchor="middle" font-size="11" font-weight="700" fill="#fff">活用場面・おすすめ度</text>
  <!-- Word row -->
  <rect x="20" y="124" width="120" height="44" rx="4" fill="#2B579A"/>
  <text x="80" y="150" text-anchor="middle" font-size="12" font-weight="700" fill="#fff">Word</text>
  <rect x="148" y="124" width="180" height="44" rx="4" fill="#EFF6FF"/>
  <text x="238" y="140" text-anchor="middle" font-size="10" fill="#374151">勉強時間：20〜40時間</text>
  <text x="238" y="158" text-anchor="middle" font-size="10" fill="#374151">難易度：★★☆☆☆</text>
  <rect x="336" y="124" width="200" height="44" rx="4" fill="#DBEAFE"/>
  <text x="436" y="140" text-anchor="middle" font-size="10" fill="#374151">勉強時間：40〜60時間</text>
  <text x="436" y="158" text-anchor="middle" font-size="10" fill="#374151">難易度：★★★☆☆</text>
  <rect x="544" y="124" width="216" height="44" rx="4" fill="#F0FDF4"/>
  <text x="652" y="140" text-anchor="middle" font-size="10" fill="#374151">事務・秘書・公務員</text>
  <text x="652" y="158" text-anchor="middle" font-size="10" fill="#15803D">★★★★☆ おすすめ</text>
  <!-- Excel row -->
  <rect x="20" y="176" width="120" height="44" rx="4" fill="#217346"/>
  <text x="80" y="202" text-anchor="middle" font-size="12" font-weight="700" fill="#fff">Excel</text>
  <rect x="148" y="176" width="180" height="44" rx="4" fill="#EFF6FF"/>
  <text x="238" y="192" text-anchor="middle" font-size="10" fill="#374151">勉強時間：20〜40時間</text>
  <text x="238" y="210" text-anchor="middle" font-size="10" fill="#374151">難易度：★★☆☆☆</text>
  <rect x="336" y="176" width="200" height="44" rx="4" fill="#DBEAFE"/>
  <text x="436" y="192" text-anchor="middle" font-size="10" fill="#374151">勉強時間：50〜80時間</text>
  <text x="436" y="210" text-anchor="middle" font-size="10" fill="#374151">難易度：★★★★☆</text>
  <rect x="544" y="176" width="216" height="44" rx="4" fill="#F0FDF4"/>
  <text x="652" y="192" text-anchor="middle" font-size="10" fill="#374151">営業・経理・総務・全職種</text>
  <text x="652" y="210" text-anchor="middle" font-size="10" fill="#15803D">★★★★★ 最優先</text>
  <!-- PowerPoint row -->
  <rect x="20" y="228" width="120" height="44" rx="4" fill="#D24726"/>
  <text x="80" y="248" text-anchor="middle" font-size="11" font-weight="700" fill="#fff">Power</text>
  <text x="80" y="262" text-anchor="middle" font-size="11" font-weight="700" fill="#fff">Point</text>
  <rect x="148" y="228" width="180" height="44" rx="4" fill="#FEF3C7"/>
  <text x="238" y="244" text-anchor="middle" font-size="10" fill="#374151">勉強時間：15〜30時間</text>
  <text x="238" y="262" text-anchor="middle" font-size="10" fill="#374151">難易度：★★☆☆☆</text>
  <rect x="336" y="228" width="200" height="44" rx="4" fill="#F1F5F9"/>
  <text x="436" y="252" text-anchor="middle" font-size="10" fill="#94A3B8">エキスパートなし</text>
  <rect x="544" y="228" width="216" height="44" rx="4" fill="#FEF9C3"/>
  <text x="652" y="244" text-anchor="middle" font-size="10" fill="#374151">営業・企画・プレゼン職</text>
  <text x="652" y="262" text-anchor="middle" font-size="10" fill="#D97706">★★★☆☆ 補完的に</text>
  <!-- Access row -->
  <rect x="20" y="280" width="120" height="44" rx="4" fill="#A4373A"/>
  <text x="80" y="306" text-anchor="middle" font-size="12" font-weight="700" fill="#fff">Access</text>
  <rect x="148" y="280" width="180" height="44" rx="4" fill="#FEF3C7"/>
  <text x="238" y="296" text-anchor="middle" font-size="10" fill="#374151">勉強時間：40〜60時間</text>
  <text x="238" y="314" text-anchor="middle" font-size="10" fill="#374151">難易度：★★★☆☆</text>
  <rect x="336" y="280" width="200" height="44" rx="4" fill="#DBEAFE"/>
  <text x="436" y="296" text-anchor="middle" font-size="10" fill="#374151">勉強時間：60〜100時間</text>
  <text x="436" y="314" text-anchor="middle" font-size="10" fill="#374151">難易度：★★★★☆</text>
  <rect x="544" y="280" width="216" height="44" rx="4" fill="#FEF9C3"/>
  <text x="652" y="296" text-anchor="middle" font-size="10" fill="#374151">データ管理・事務系専門職</text>
  <text x="652" y="314" text-anchor="middle" font-size="10" fill="#D97706">★★★☆☆ 業種次第</text>
  <!-- Bottom advice -->
  <rect x="20" y="336" width="720" height="52" rx="8" fill="#1E293B"/>
  <text x="380" y="355" text-anchor="middle" font-size="11" font-weight="700" fill="#94A3B8">取得の優先順位</text>
  <rect x="28" y="362" width="220" height="20" rx="4" fill="#217346"/>
  <text x="138" y="376" text-anchor="middle" font-size="10" font-weight="700" fill="#fff">① Excel一般（全職種で最優先）</text>
  <rect x="258" y="362" width="220" height="20" rx="4" fill="#2B579A"/>
  <text x="368" y="376" text-anchor="middle" font-size="10" font-weight="700" fill="#fff">② Word一般（事務・秘書に必須）</text>
  <rect x="488" y="362" width="248" height="20" rx="4" fill="#005A9E"/>
  <text x="612" y="376" text-anchor="middle" font-size="10" font-weight="700" fill="#fff">③ Excel Expert（経理・管理職へ）</text>
</svg>
